<svg width="1280" height="1889" viewBox="0 0 1280 1889" fill="none" xmlns="http://www.w3.org/2000/svg">
<path fill-rule="evenodd" clip-rule="evenodd" d="M362.818 145.828C246.084 473.61 241.139 570.36 332.074 749.156C404.566 891.665 605.061 1100.27 721.349 1154.18C764.05 1173.99 803.792 1185.41 809.649 1179.6C815.506 1173.79 791.754 1139.07 756.855 1102.46C721.957 1065.83 669.994 988.857 641.378 931.351C581.491 811.047 588.544 718.703 660.55 680.103C722.099 647.136 872.17 652.889 966.024 691.81C1054.87 728.679 1086.41 719.145 1027.29 673.285C959.863 620.967 864.408 587.357 691.213 554.932C455.313 510.782 420.779 473.892 420.779 266.092C420.779 180.586 427.791 85.727 436.364 55.3142C445.22 23.9159 443.903 0 433.365 0C423.13 0 391.393 65.6127 362.818 145.828ZM503.283 212.628C432.554 282.847 491.306 402.285 596.569 402.285C656.294 402.285 714.641 345.905 714.641 288.157C714.641 197.059 570.79 145.647 503.283 212.628Z" fill="#0F448A"/>
<path d="M341.092 1292.34C367.925 1377.59 444.917 1539.75 498.723 1624.33C528.312 1670.85 552.51 1716.89 552.51 1726.65L563.109 1624.53C546.815 1570.08 527.299 1492.3 519.74 1451.67C510.681 1402.93 481.193 1355.9 433 1313.3C346.22 1236.58 321.799 1231.03 341.092 1292.34Z" fill="#0F448A"/>
<path d="M552.51 1726.65C552.51 1736.42 501.662 1750.32 439.526 1757.58C315.01 1772.11 111.009 1837.2 77.4279 1873.12C61.5188 1890.14 74.2664 1892.47 126.918 1882.15C341.356 1840.09 445.383 1829.94 684.606 1827.66C829.713 1826.27 977.9 1831.58 1013.93 1839.43C1050.76 1847.45 1079.43 1845.6 1079.43 1835.18C1079.43 1809.22 950.175 1773.68 757.017 1746.58L552.51 1726.65Z" fill="#31872E"/>
<path d="M33.0042 494.107C-77.0823 660.834 97.2888 1011.06 421.266 1274C700.231 1500.38 1073.33 1612.92 1204.54 1510.24C1260.31 1466.59 1296.18 1366.42 1270.69 1325.49C1261.75 1311.15 1246.14 1326.27 1229.63 1365.22C1173.33 1498.11 1020.86 1497.33 749.924 1362.76C619.43 1297.93 542.073 1239.74 396.257 1096.65C185.103 889.473 101.16 744.851 106.996 598.319C113.948 424.33 95.8702 398.866 33.0042 494.107Z" fill="#31872E"/>
<path d="M138.936 393.877C131.823 426.161 135.389 501.69 146.88 561.731C235.687 1025.81 789.22 1491.77 1008.66 1287.15C1110.79 1191.93 1060.71 984.613 883.601 769.37C844.912 722.363 795.625 683.885 774.082 683.885C718.775 683.885 724.105 697.925 817.512 798.496C1009.56 1005.27 1032.58 1247.51 860.132 1246.88C764.252 1246.54 594.259 1150.94 469.722 1027.34C327.717 886.395 213.394 667.874 194.608 501.428C178.476 358.738 156.203 315.693 138.936 393.877Z" fill="#31872E"/>
</svg>
