<svg width="1112" height="128" viewBox="0 0 1112 128" fill="none" xmlns="http://www.w3.org/2000/svg">
<g filter="url(#filter0_d_17_159)">
<path fill-rule="evenodd" clip-rule="evenodd" d="M258.73 10.0192L23.9206 117.344L23.5594 117.533L23.3081 117.059L23.0579 116.585L174.506 36.4575L127.115 37.0512L4.68266 117.535L4.68056 117.531L4 116.705L134.831 9.06957L134.974 8.95335L134.977 8.95754V8.94707H258.73V10.0192ZM12.418 111.166L126.657 36.0691L126.79 35.9822L126.945 35.9811L176.843 35.3561L176.849 35.8921L176.857 36.4282L40.2489 108.702L256.151 10.0192H135.365L12.418 111.166Z" fill="black"/>
<path d="M12.418 111.166L126.657 36.0691L126.79 35.9822L126.945 35.9811L176.843 35.3561L176.849 35.8921L176.857 36.4282L40.2489 108.702L256.151 10.0192H135.365L12.418 111.166Z" fill="black"/>
<path d="M365.371 117.535H284.212L304.744 1.1317H385.903L381.376 26.3523H329.318L325.6 48.1779H368.604L364.077 73.3985H321.073L317.84 92.314H369.898L365.371 117.535Z" fill="black"/>
<path d="M431.848 89.2422L462.565 1.1317H494.091L449.955 117.535H398.22L396.927 1.1317H428.614L428.129 89.2422H431.848Z" fill="black"/>
<path d="M549.98 0C575.955 0 588.942 10.6164 588.942 31.8491C588.942 35.4059 588.565 39.2321 587.811 43.3278L582.152 75.6619C579.566 90.6434 573.961 101.745 565.339 108.966C556.716 116.187 544.591 119.798 528.963 119.798C513.334 119.798 502.449 116.187 496.305 108.966C492.102 104.008 490 97.1641 490 88.4339C490 84.5538 490.431 80.2964 491.293 75.6619L496.952 43.3278C502.017 14.4426 519.694 0 549.98 0ZM533.328 94.739C538.717 94.739 543.028 93.3379 546.261 90.5356C549.495 87.7333 551.758 82.5598 553.052 75.0152L558.548 43.9744C558.872 41.8188 559.033 39.8788 559.033 38.1543C559.033 29.4241 554.614 25.059 545.776 25.059C534.675 25.2745 528.047 31.5797 525.891 43.9744L520.394 75.0152C519.963 77.7097 519.747 80.512 519.747 83.4221C519.747 90.9667 524.274 94.739 533.328 94.739Z" fill="black"/>
<path d="M668.171 117.535H594.449L614.982 1.1317H644.082L628.077 92.314H672.698L668.171 117.535Z" fill="black"/>
<path d="M719.192 89.2422L749.91 1.1317H781.435L737.299 117.535H685.565L684.271 1.1317H715.959L715.474 89.2422H719.192Z" fill="black"/>
<path d="M886.43 1.1317L866.06 117.535H836.798L816.427 53.8363L805.433 117.535H776.171L796.703 1.1317H826.774L846.821 60.6265L857.33 1.1317H886.43Z" fill="#DC2626"/>
<path d="M970.057 117.535H888.898L909.431 1.1317H990.589L986.062 26.3523H934.005L930.286 48.1779H973.29L968.764 73.3985H925.759L922.526 92.314H974.584L970.057 117.535Z" fill="#DC2626"/>
<path d="M1107.83 1.1317L1062.24 59.8182L1087.3 117.535H1054.16L1038.31 80.3503L1011.64 117.535H978.494L1021.34 59.8182L999.026 1.1317H1032.17L1045.59 38.9626L1074.69 1.1317H1107.83Z" fill="#DC2626"/>
</g>
<defs>
<filter id="filter0_d_17_159" x="0" y="0" width="1111.83" height="127.798" filterUnits="userSpaceOnUse" color-interpolation-filters="sRGB">
<feFlood flood-opacity="0" result="BackgroundImageFix"/>
<feColorMatrix in="SourceAlpha" type="matrix" values="0 0 0 0 0 0 0 0 0 0 0 0 0 0 0 0 0 0 127 0" result="hardAlpha"/>
<feOffset dy="4"/>
<feGaussianBlur stdDeviation="2"/>
<feComposite in2="hardAlpha" operator="out"/>
<feColorMatrix type="matrix" values="0 0 0 0 0 0 0 0 0 0 0 0 0 0 0 0 0 0 0.25 0"/>
<feBlend mode="normal" in2="BackgroundImageFix" result="effect1_dropShadow_17_159"/>
<feBlend mode="normal" in="SourceGraphic" in2="effect1_dropShadow_17_159" result="shape"/>
</filter>
</defs>
</svg>
