<svg width="1996" height="851" viewBox="0 0 1996 851" fill="none" xmlns="http://www.w3.org/2000/svg">
<path d="M1994.7 0.5V8.07715L156.328 848.347L156.31 848.289L155.788 848.567L153.407 849.832L151.675 846.567L149.948 843.295L1335.75 215.921L1335.5 214.979L964.307 219.629L964.161 219.631L964.039 219.711L5.44922 849.858L0.703125 844.099L1025.07 1.34668L1025.78 0.765625L1026.39 1.58203V0.5H1994.7ZM1028.62 8.01172L65.6182 800.253L66.21 801.058L961.002 212.854L961.003 212.855L961.922 212.255L962.988 212.248H962.991L1353.32 207.357L1353.37 211.057V211.058L1353.42 214.95L283.69 780.9L284.132 781.797L1975.21 8.85254L1975 7.89746H1028.76L1028.62 8.01172ZM1972.71 8.89746L299.42 773.709L1354.16 215.691L1354.43 215.549L1354.42 215.243L1354.37 211.044L1354.32 206.846L1354.31 206.346L1353.81 206.352L962.979 211.248L961.768 211.256L961.62 211.257L961.497 211.337L960.456 212.019H960.455L73.4668 795.09L1029.12 8.89746H1972.71Z" fill="#FFFEFE" stroke="white"/>
</svg>
