<svg width="1192" height="137" viewBox="0 0 1192 137" fill="none" xmlns="http://www.w3.org/2000/svg">
<path d="M273.31 10.1171V10.4472L21.7109 125.447L21.6992 125.411L21.2314 125.659L21.1953 125.593L21.1602 125.525L183.512 39.6298L183.271 38.6884L132.33 39.3261L132.185 39.3281L132.062 39.4081L0.833984 125.674L0.703125 125.515L140.697 10.3417L140.789 10.4638L8.73047 119.106L9.32324 119.91L132.117 39.1884L132.118 39.1894L132.139 39.1757H132.16L185.296 38.5097L185.297 38.5859V38.5869L185.3 38.8574L38.7305 116.402L39.1719 117.299L271.245 11.2245L271.038 10.2695H141.287V10.1171H273.31ZM268.74 11.2695L54.46 109.211L186.038 39.5986L186.309 39.456L186.305 39.1503L186.296 38.5732L186.29 37.998L186.284 37.498L185.783 37.5038L132.148 38.1757L131.984 38.1777L131.837 38.1786L131.714 38.2587L131.571 38.3525H131.57L16.5811 113.941L141.385 11.2695H268.74Z" fill="#FFFEFE" stroke="white"/>
<g filter="url(#filter0_d_17_154)">
<path d="M389.924 126.338H302.686L324.756 1.21647H411.994L407.128 28.3262H351.171L347.174 51.7865H393.399L388.534 78.8963H342.308L338.832 99.2286H394.79L389.924 126.338Z" fill="white"/>
<path d="M461.38 95.9267L494.398 1.21647H528.285L480.843 126.338H425.234L423.843 1.21647H457.904L457.383 95.9267H461.38Z" fill="white"/>
<path d="M588.36 0C616.281 0 630.242 11.4116 630.242 34.2347C630.242 38.0579 629.836 42.1707 629.025 46.5731L622.943 81.3292C620.162 97.4328 614.138 109.366 604.87 117.128C595.601 124.89 582.568 128.771 565.769 128.771C548.97 128.771 537.269 124.89 530.665 117.128C526.147 111.799 523.888 104.442 523.888 95.0578C523.888 90.8871 524.351 86.3109 525.278 81.3292L531.361 46.5731C536.806 15.5244 555.806 0 588.36 0ZM570.461 101.835C576.254 101.835 580.888 100.329 584.364 97.317C587.839 94.3048 590.272 88.7438 591.662 80.6341L597.571 47.2683C597.918 44.9512 598.092 42.8658 598.092 41.0122C598.092 31.628 593.342 26.936 583.842 26.936C571.909 27.1677 564.784 33.9451 562.467 47.2683L556.559 80.6341C556.095 83.5304 555.864 86.5426 555.864 89.6707C555.864 97.7804 560.729 101.835 570.461 101.835Z" fill="white"/>
<path d="M715.405 126.338H636.161L658.231 1.21647H689.511L672.307 99.2286H720.271L715.405 126.338Z" fill="white"/>
<path d="M770.247 95.9267L803.266 1.21647H837.153L789.711 126.338H734.101L732.711 1.21647H766.772L766.25 95.9267H770.247Z" fill="white"/>
<path d="M950.012 1.21647L928.116 126.338H896.662L874.765 57.8689L862.948 126.338H831.494L853.564 1.21647H885.887L907.436 65.1676L918.732 1.21647H950.012Z" fill="#DC2626"/>
<path d="M1039.9 126.338H952.665L974.735 1.21647H1061.97L1057.11 28.3262H1001.15L997.153 51.7865H1043.38L1038.51 78.8963H992.287L988.811 99.2286H1044.77L1039.9 126.338Z" fill="#DC2626"/>
<path d="M1188 1.21647L1138.99 64.2987L1165.93 126.338H1130.3L1113.27 86.3688L1084.6 126.338H1048.97L1095.02 64.2987L1071.04 1.21647H1106.67L1121.09 41.8811L1152.37 1.21647H1188Z" fill="#DC2626"/>
</g>
<defs>
<filter id="filter0_d_17_154" x="298.686" y="0" width="893.31" height="136.771" filterUnits="userSpaceOnUse" color-interpolation-filters="sRGB">
<feFlood flood-opacity="0" result="BackgroundImageFix"/>
<feColorMatrix in="SourceAlpha" type="matrix" values="0 0 0 0 0 0 0 0 0 0 0 0 0 0 0 0 0 0 127 0" result="hardAlpha"/>
<feOffset dy="4"/>
<feGaussianBlur stdDeviation="2"/>
<feComposite in2="hardAlpha" operator="out"/>
<feColorMatrix type="matrix" values="0 0 0 0 0 0 0 0 0 0 0 0 0 0 0 0 0 0 0.25 0"/>
<feBlend mode="normal" in2="BackgroundImageFix" result="effect1_dropShadow_17_154"/>
<feBlend mode="normal" in="SourceGraphic" in2="effect1_dropShadow_17_154" result="shape"/>
</filter>
</defs>
</svg>
